<svg viewBox="0 0 115 115" width="100%" height="100%" xmlns="http://www.w3.org/2000/svg">
  <!-- Heart 1: Slate Blue -->
  <path 
    d="M 50 30 C 50 30 45 15 30 15 C 15 15 5 25 5 40 C 5 60 30 80 50 95 C 70 80 95 60 95 40 C 95 25 85 15 70 15 C 55 15 50 30 50 30 Z" 
    fill="#24324A"
    transform="translate(5, 5) scale(0.7)"
  />
  <!-- Heart 2: Coral with white stroke to create separation -->
  <path 
    d="M 50 30 C 50 30 45 15 30 15 C 15 15 5 25 5 40 C 5 60 30 80 50 95 C 70 80 95 60 95 40 C 95 25 85 15 70 15 C 55 15 50 30 50 30 Z" 
    fill="#E15A3E"
    stroke="white"
    stroke-width="8"
    stroke-linejoin="round"
    transform="translate(40, 40) scale(0.7)"
  />
</svg>
